<?xml version="1.0" encoding="iso-8859-1"?>
<!-- Generator: Adobe Illustrator 19.0.0, SVG Export Plug-In . SVG Version: 6.00 Build 0)  -->
<svg version="1.1" id="Capa_1" xmlns="http://www.w3.org/2000/svg" xmlns:xlink="http://www.w3.org/1999/xlink" x="0px" y="0px"
	width="18px" height="18px" viewBox="0 0 48.5 48.5" style="enable-background:new 0 0 48.5 48.5;" xml:space="preserve"
	fill="White">
<g>
	<path d="M24,12.276V5.25c0-0.368-0.202-0.706-0.525-0.88c-0.324-0.174-0.717-0.158-1.025,0.045l-22,14.5
		C0.169,19.1,0,19.414,0,19.75c0,0.336,0.169,0.65,0.449,0.835l22,14.5c0.167,0.11,0.358,0.165,0.551,0.165
		c0.163,0,0.326-0.04,0.475-0.12C23.798,34.956,24,34.618,24,34.25v-8.958c10.589,0.44,19.52,7.779,21.905,18.181
		c0.104,0.454,0.509,0.776,0.975,0.776s0.87-0.322,0.975-0.776c0.429-1.864,0.646-3.79,0.646-5.724
		C48.5,24.025,37.598,12.803,24,12.276z M22,32.393L2.817,19.75L22,7.107v6.143v11V32.393z M46.479,38.758
		C42.678,29.741,34.019,23.65,24,23.269v-8.998c12.495,0.526,22.5,10.856,22.5,23.479C46.5,38.087,46.493,38.423,46.479,38.758z"/>
</g>
<g>
</g>
<g>
</g>
<g>
</g>
<g>
</g>
<g>
</g>
<g>
</g>
<g>
</g>
<g>
</g>
<g>
</g>
<g>
</g>
<g>
</g>
<g>
</g>
<g>
</g>
<g>
</g>
<g>
</g>
</svg>
