<?xml version="1.0" encoding="utf-8"?>
<!-- Generator: Adobe Illustrator 16.0.0, SVG Export Plug-In . SVG Version: 6.00 Build 0)  -->
<!DOCTYPE svg PUBLIC "-//W3C//DTD SVG 1.1//EN" "http://www.w3.org/Graphics/SVG/1.1/DTD/svg11.dtd">
<svg version="1.1" id="Layer_1" xmlns="http://www.w3.org/2000/svg" xmlns:xlink="http://www.w3.org/1999/xlink" x="0px" y="0px"
	 width="20px" height="20px" viewBox="0 0 300 300" enable-background="new 0 0 300 300" xml:space="preserve" fill="Green" >
<g>
	<path d="M40.849,150c0-58.701,46.628-106.597,104.767-108.929l-14.244,9.97c-2.746,1.93-3.414,5.703-1.497,8.449
		c1.182,1.688,3.062,2.585,4.973,2.585c1.206,0,2.425-0.353,3.477-1.095l30.318-21.22c1.62-1.138,2.591-2.994,2.591-4.973
		s-0.971-3.834-2.591-4.966L138.323,8.601c-2.746-1.93-6.538-1.262-8.449,1.491c-1.917,2.74-1.249,6.525,1.497,8.442l14.838,10.378
		C81.101,30.953,28.727,84.415,28.727,150c0,54.223,35.768,100.232,84.956,115.707c-0.007-0.161-0.063-0.334-0.063-0.495
		c0-4.045,1.262-7.867,3.358-11.207C72.887,239.984,40.849,198.669,40.849,150z"/>
	<path d="M271.273,150c0-54.217-35.761-100.227-84.949-115.701c0.006,0.167,0.062,0.322,0.062,0.489
		c0,4.045-1.262,7.867-3.358,11.207c44.086,14.027,76.124,55.336,76.124,104.005c0,58.694-46.622,106.591-104.76,108.916
		l14.243-9.964c2.746-1.917,3.414-5.696,1.497-8.437c-1.917-2.746-5.721-3.414-8.448-1.496l-30.318,21.232
		c-1.621,1.138-2.592,2.981-2.592,4.96c0,1.979,0.971,3.835,2.592,4.973l30.318,21.227c1.058,0.73,2.27,1.089,3.476,1.089
		c1.911,0,3.791-0.903,4.973-2.585c1.917-2.746,1.249-6.52-1.497-8.449l-14.837-10.378C218.906,269.047,271.273,215.585,271.273,150
		z"/>
	<path d="M225.796,146.604c2.548,0,5.097-1.07,6.902-3.161c3.271-3.81,2.845-9.549-0.978-12.828l-75.789-65.164
		c-3.414-2.932-8.449-2.932-11.863,0l-75.789,65.164c-3.822,3.278-4.249,9.018-0.978,12.828c3.278,3.804,9.023,4.249,12.827,0.965
		L150,84.341l69.871,60.068C221.59,145.887,223.693,146.604,225.796,146.604z"/>
	<path d="M148.021,93.532l-57.111,49.281c-0.661,0.582-1.051,1.41-1.051,2.294v71.244c0,1.676,1.354,3.043,3.03,3.043h114.223
		c1.676,0,3.03-1.367,3.03-3.043v-71.244c0-0.884-0.39-1.713-1.051-2.294l-57.111-49.281
		C150.841,92.555,149.159,92.555,148.021,93.532z M144.446,199.053c0,2.511-2.041,4.539-4.553,4.539h-17.688
		c-2.511,0-4.552-2.028-4.552-4.539v-17.708c0-2.511,2.041-4.539,4.552-4.539h17.688c2.512,0,4.553,2.028,4.553,4.539V199.053z
		 M144.446,161.151c0,2.511-2.041,4.552-4.553,4.552h-17.688c-2.511,0-4.552-2.041-4.552-4.552v-17.72
		c0-2.511,2.041-4.546,4.552-4.546h17.688c2.512,0,4.553,2.035,4.553,4.546V161.151z M155.554,143.432
		c0-2.511,2.041-4.546,4.553-4.546h17.688c2.511,0,4.552,2.035,4.552,4.546v17.72c0,2.511-2.041,4.552-4.552,4.552h-17.688
		c-2.512,0-4.553-2.041-4.553-4.552V143.432z M155.554,181.345c0-2.511,2.041-4.539,4.553-4.539h17.688
		c2.511,0,4.552,2.028,4.552,4.539v17.708c0,2.511-2.041,4.539-4.552,4.539h-17.688c-2.512,0-4.553-2.028-4.553-4.539V181.345z"/>
</g>
</svg>
