<?xml version="1.0" encoding="iso-8859-1"?>
<!-- Generator: Adobe Illustrator 19.0.0, SVG Export Plug-In . SVG Version: 6.00 Build 0)  -->
<svg version="1.1" id="Layer_1" xmlns="http://www.w3.org/2000/svg" xmlns:xlink="http://www.w3.org/1999/xlink" x="0px" y="0px"
	 viewBox="0 0 496 496" style="enable-background:new 0 0 496 496;" xml:space="preserve">
<g>
	<path style="fill:#4A7A7F;" d="M140.8,329.6c-8,0-15.2-5.6-16.8-13.6L85.6,136c-1.6-9.6,4-18.4,12.8-20c9.6-1.6,18.4,4,20,12.8
		l38.4,180c1.6,9.6-4,18.4-12.8,20C143.2,328.8,142.4,329.6,140.8,329.6z"/>
	<path style="fill:#4A7A7F;" d="M273.6,329.6c-0.8,0-2.4,0-4,0c-9.6-1.6-15.2-11.2-12.8-20L296,128.8c1.6-9.6,11.2-15.2,20-12.8
		c9.6,1.6,15.2,11.2,12.8,20l-38.4,180C288.8,324,281.6,329.6,273.6,329.6z"/>
	<path style="fill:#4A7A7F;" d="M207.2,325.6c-9.6,0-16.8-8-16.8-16.8v-180c0-9.6,8-16.8,16.8-16.8c9.6,0,16.8,8,16.8,16.8v180
		C224.8,318.4,216.8,325.6,207.2,325.6z"/>
</g>
<path style="fill:#72B1B7;" d="M414.4,134.4c1.6-4.8,0.8-11.2-2.4-15.2c-3.2-4-8-7.2-13.6-7.2H16.8c-5.6,0-10.4,2.4-13.6,7.2
	c-3.2,4.8-4,10.4-2.4,15.2L40,260c0,2.4,0.8,4.8,2.4,7.2l16.8,54.4c2.4,7.2,8.8,12,16,12h264c7.2,0,14.4-4.8,16-12l16.8-54.4
	c0.8-2.4,1.6-4.8,2.4-7.2L414.4,134.4z M60.8,210.4h293.6l-9.6,30.4H70.4L60.8,210.4z M374.4,146.4l-8.8,29.6h-316L40,145.6h334.4
	V146.4z M88,299.2l-7.2-24h253.6l-7.2,24H88z"/>
<path style="fill:#5D9BA5;" d="M397.6,120H16.8c-5.6,0-10.4,2.4-13.6,7.2c-1.6,1.6-2.4,4-2.4,6.4v0.8L40,260c0,2.4,0.8,4.8,2.4,7.2
	l16.8,54.4c2.4,7.2,8.8,12,16,12h264c7.2,0,14.4-4.8,16-12l16.8-54.4c0.8-2.4,1.6-4.8,2.4-7.2l39.2-125.6v-0.8
	c-0.8-2.4-1.6-4-2.4-6.4C408.8,122.4,403.2,120,397.6,120z M334.4,283.2l-7.2,24H88l-7.2-24h2.4l-2.4-8h253.6l-2.4,8H334.4z
	 M354.4,218.4l-9.6,30.4H70.4l-9.6-30.4h2.4l-2.4-8h293.6l-2.4,8H354.4z M374.4,153.6l-8.8,30.4h-316L40,153.6h2.4l-2.4-8h334.4
	l-2.4,8H374.4z"/>
<path style="fill:#72B1B7;" d="M348.8,395.2H66.4c-9.6,0-16.8-8-16.8-16.8c0-9.6,8-16.8,16.8-16.8h282.4c9.6,0,16.8,8,16.8,16.8
	C365.6,387.2,358.4,395.2,348.8,395.2z"/>
<path style="fill:#5D9BA5;" d="M80.8,395.2h112c0-14.4-16-26.4-33.6-34.4h-60C87.2,368.8,80.8,380.8,80.8,395.2z"/>
<path style="fill:#C43700;" d="M166.4,395.2c0,24-19.2,45.6-43.2,45.6S80,418.4,80,395.2c0-24,19.2-43.2,43.2-43.2
	S166.4,371.2,166.4,395.2z"/>
<path style="fill:#FF9D00;" d="M166.4,395.2c0,24-19.2,43.2-43.2,43.2S80,419.2,80,395.2s19.2-46.4,43.2-46.4
	C147.2,348.8,166.4,371.2,166.4,395.2z"/>
<circle style="fill:#FF5B00;" cx="123.2" cy="395.2" r="43.2"/>
<path style="fill:#DD4400;" d="M92.8,364.8c16.8-16.8,44-16.8,60.8,0s16.8,44,0,60.8"/>
<path style="fill:#EBF0F2;" d="M123.2,420.8c-14.4,0-25.6-11.2-25.6-25.6s11.2-25.6,25.6-25.6s25.6,11.2,25.6,25.6
	C148.8,408.8,137.6,420.8,123.2,420.8z"/>
<path style="fill:#CADFE5;" d="M141.6,376.8c9.6,9.6,9.6,26.4,0,36s-26.4,9.6-36,0"/>
<path style="fill:#5D9BA5;" d="M238.4,395.2h112c0-14.4-16-26.4-33.6-34.4H256C245.6,368.8,238.4,380.8,238.4,395.2z"/>
<path style="fill:#C43700;" d="M324,395.2c0,24-19.2,45.6-43.2,45.6s-43.2-22.4-43.2-45.6c0-24,19.2-43.2,43.2-43.2
	S324,371.2,324,395.2z"/>
<path style="fill:#FF9D00;" d="M324,395.2c0,24-19.2,43.2-43.2,43.2s-43.2-19.2-43.2-43.2s19.2-46.4,43.2-46.4
	C304.8,348.8,324,371.2,324,395.2z"/>
<circle style="fill:#FF5B00;" cx="281.6" cy="395.2" r="43.2"/>
<path style="fill:#DD4400;" d="M251.2,364.8c16.8-16.8,44-16.8,60.8,0s16.8,44,0,60.8"/>
<path style="fill:#EBF0F2;" d="M281.6,420.8c-14.4,0-25.6-11.2-25.6-25.6s11.2-25.6,25.6-25.6s25.6,11.2,25.6,25.6
	C306.4,408.8,295.2,420.8,281.6,420.8z"/>
<path style="fill:#CADFE5;" d="M299.2,376.8c9.6,9.6,9.6,26.4,0,36s-26.4,9.6-36,0"/>
<path style="fill:#1B5A89;" d="M496,73.6c0,9.6-8,16.8-16.8,16.8h-72c-9.6,0-16.8-8-16.8-16.8V72c0-9.6,8-16.8,16.8-16.8h72
	c9.6,0,16.8,8,16.8,16.8V73.6z"/>
<path style="fill:#18456D;" d="M407.2,55.2c-7.2,0-13.6,4.8-16,12c2.4,7.2,8.8,12,16,12h72c7.2,0,13.6-4.8,16-12
	c-2.4-7.2-8.8-12-16-12C479.2,55.2,407.2,55.2,407.2,55.2z"/>
<circle style="fill:#176EA3;" cx="388.8" cy="162.4" r="107.2"/>
<path style="fill:#18456D;" d="M388.8,55.2c59.2,0,107.2,48,107.2,107.2s-48,107.2-107.2,107.2"/>
<path style="fill:#1B5A89;" d="M312.8,86.4c41.6-41.6,109.6-41.6,152,0c41.6,41.6,41.6,109.6,0,152"/>
<g>
	<path style="fill:#EEFFFF;" d="M388,213.6c-8.8,0-15.2-7.2-15.2-15.2v-72c0-8.8,7.2-15.2,15.2-15.2c8.8,0,15.2,7.2,15.2,15.2v72
		C403.2,207.2,396,213.6,388,213.6z"/>
	<path style="fill:#EEFFFF;" d="M424,177.6h-72c-8.8,0-15.2-7.2-15.2-15.2c0-8.8,7.2-15.2,15.2-15.2h72c8.8,0,15.2,7.2,15.2,15.2
		C439.2,171.2,432,177.6,424,177.6z"/>
</g>
<g>
</g>
<g>
</g>
<g>
</g>
<g>
</g>
<g>
</g>
<g>
</g>
<g>
</g>
<g>
</g>
<g>
</g>
<g>
</g>
<g>
</g>
<g>
</g>
<g>
</g>
<g>
</g>
<g>
</g>
</svg>
